{
    "accessors": [
        {
            "bufferView": 2,
            "byteOffset": 0,
            "componentType": 5126,
            "normalized": false,
            "count": 1585,
            "type": "VEC3",
            "max": [
                0.5943308472633362,
                1.3385096788406372,
                0.5077455043792725
            ],
            "min": [
                -0.594146192073822,
                -0.868020236492157,
                -0.6226729154586792
            ]
        },
        {
            "bufferView": 2,
            "byteOffset": 19020,
            "componentType": 5126,
            "normalized": false,
            "count": 1585,
            "type": "VEC3",
            "max": [
                0.999910831451416,
                0.999988317489624,
                0.9999532699584961
            ],
            "min": [
                -0.999910831451416,
                -0.9999997615814209,
                -0.9999028444290161
            ]
        },
        {
            "bufferView": 1,
            "byteOffset": 0,
            "componentType": 5126,
            "normalized": false,
            "count": 1585,
            "type": "VEC2",
            "max": [
                0.9584786891937256,
                0.9811445474624634
            ],
            "min": [
                0.02291366457939148,
                0.016056492924690247
            ]
        },
        {
            "bufferView": 0,
            "byteOffset": 0,
            "componentType": 5125,
            "normalized": false,
            "count": 8016,
            "type": "SCALAR"
        },
        {
            "bufferView": 2,
            "byteOffset": 38040,
            "componentType": 5126,
            "normalized": false,
            "count": 185,
            "type": "VEC3",
            "max": [
                0.36218544840812683,
                0.9646438360214233,
                0.513810396194458
            ],
            "min": [
                -0.3620007038116455,
                0.5554811954498291,
                0.23664994537830353
            ]
        },
        {
            "bufferView": 2,
            "byteOffset": 40260,
            "componentType": 5126,
            "normalized": false,
            "count": 185,
            "type": "VEC3",
            "max": [
                0.9972288012504578,
                0.9855939149856567,
                0.9997586011886597
            ],
            "min": [
                -0.9972418546676636,
                -0.8636006712913513,
                -0.09228972345590591
            ]
        },
        {
            "bufferView": 1,
            "byteOffset": 12680,
            "componentType": 5126,
            "normalized": false,
            "count": 185,
            "type": "VEC2",
            "max": [
                0.974210262298584,
                0.8696020245552063
            ],
            "min": [
                0.8346587419509888,
                0.6315492987632751
            ]
        },
        {
            "bufferView": 0,
            "byteOffset": 32064,
            "componentType": 5125,
            "normalized": false,
            "count": 912,
            "type": "SCALAR"
        }
    ],
    "asset": {
        "generator": "pygltflib@v1.16.2",
        "version": "2.0",
        "extensions": {
            "KHR_xmp_json_ld": {
                "packets": [
                    {
                        "@context": {
                            "dc": "http://purl.org/dc/elements/1.1/",
                            "vsekai": "http://v-sekai.org/elements/0.1/"
                        },
                        "@id": "0413476a5d8a4998a501866965cba2cb",
                        "dc:title": "AmongUs_Charecter",
                        "dc:creator": {
                            "@id": "35a4a8319b63415daa42bb89776031d3",
                            "dc:name": "BeastSri"
                        },
                        "dc:description": "!Hola!, this is a game ready model , ready to rig , Uv Unwrapped , it is in fbx format .It is conciderably high poly mesh if you want to use in game engines you need to reduce poly count 'One step'.I'm providing all  Skins(colors) textures and also the Uvs of the model if you want to add custom textures.feel free to give feedback on this work .Bye.",
                        "dc:date": "2020-12-02T05:06:18.026288",
                        "dc:identifier": "https://api.sketchfab.com/v3/models/0413476a5d8a4998a501866965cba2cb",
                        "dc:source": "https://sketchfab.com/3d-models/0413476a5d8a4998a501866965cba2cb",
                        "dc:rights": "by",
                        "dc:subject": [
                            {
                                "name": "fbxmodel",
                                "slug": "fbxmodel",
                                "uri": "https://api.sketchfab.com/v3/tags/fbxmodel"
                            },
                            {
                                "name": "gamereadycharacter",
                                "slug": "gamereadycharacter",
                                "uri": "https://api.sketchfab.com/v3/tags/gamereadycharacter"
                            },
                            {
                                "name": "readytorig",
                                "slug": "readytorig",
                                "uri": "https://api.sketchfab.com/v3/tags/readytorig"
                            }
                        ],
                        "dc:type": "3D Model",
                        "dc:relation": "https://sketchfab.com/BeastSri",
                        "vsekai:viewCount": 39,
                        "vsekai:likeCount": 0,
                        "vsekai:commentCount": 0,
                        "vsekai:isDownloadable": true,
                        "vsekai:publishedAt": "2020-12-02T05:25:25.995118",
                        "vsekai:faceCount": 2976,
                        "vsekai:vertexCount": 1514,
                        "vsekai:isAgeRestricted": false,
                        "vsekai:animationCount": 0,
                        "vsekai:staffpickedAt": null,
                        "vsekai:archives": {
                            "glb": {
                                "textureCount": 0,
                                "size": 95600,
                                "type": "glb",
                                "textureMaxResolution": 0,
                                "faceCount": 2976,
                                "vertexCount": 1770
                            },
                            "gltf": {
                                "textureCount": 0,
                                "size": 55903,
                                "type": "gltf",
                                "textureMaxResolution": 0,
                                "faceCount": 2976,
                                "vertexCount": 1770
                            },
                            "source": {
                                "textureCount": null,
                                "size": 4436944,
                                "type": "source",
                                "textureMaxResolution": null,
                                "faceCount": null,
                                "vertexCount": null
                            }
                        },
                        "vsekai:categories": [
                            {
                                "name": "characters-creatures"
                            }
                        ]
                    }
                ],
                "packet": 0
            }
        }
    },
    "bufferViews": [
        {
            "buffer": 0,
            "byteOffset": 0,
            "byteLength": 35712,
            "target": 34963,
            "name": "floatBufferViews"
        },
        {
            "buffer": 0,
            "byteOffset": 35712,
            "byteLength": 14160,
            "byteStride": 8,
            "target": 34962,
            "name": "floatBufferViews"
        },
        {
            "buffer": 0,
            "byteOffset": 49872,
            "byteLength": 42480,
            "byteStride": 12,
            "target": 34962,
            "name": "floatBufferViews"
        }
    ],
    "buffers": [
        {
            "uri": "data:application/octet-stream;base64,",
            "byteLength": 92352
        }
    ],
    "materials": [
        {
            "pbrMetallicRoughness": {
                "baseColorFactor": [
                    0.278238,
                    0.00385007,
                    0.00360926,
                    1.0
                ],
                "metallicFactor": 0.0,
                "roughnessFactor": 0.9847721205726634
            },
            "emissiveFactor": [
                0.0,
                0.0,
                0.0
            ],
            "alphaMode": "OPAQUE",
            "alphaCutoff": 0.5,
            "doubleSided": true,
            "name": "Body_Mat"
        },
        {
            "pbrMetallicRoughness": {
                "baseColorFactor": [
                    0.0,
                    0.0,
                    0.0,
                    1.0
                ],
                "metallicFactor": 0.0,
                "roughnessFactor": 1.0
            },
            "emissiveFactor": [
                0.0,
                0.0,
                0.0
            ],
            "alphaMode": "OPAQUE",
            "alphaCutoff": 0.5,
            "doubleSided": true,
            "name": "Material"
        }
    ],
    "meshes": [
        {
            "primitives": [
                {
                    "attributes": {
                        "POSITION": 0,
                        "NORMAL": 1,
                        "TEXCOORD_0": 2
                    },
                    "indices": 3,
                    "mode": 4,
                    "material": 0
                }
            ],
            "name": "Character_Body_Mat_0"
        },
        {
            "primitives": [
                {
                    "attributes": {
                        "POSITION": 4,
                        "NORMAL": 5,
                        "TEXCOORD_0": 6
                    },
                    "indices": 7,
                    "mode": 4,
                    "material": 1
                }
            ],
            "name": "Character_Material_0"
        }
    ],
    "nodes": [
        {
            "children": [
                1
            ],
            "matrix": [
                1.0,
                0.0,
                0.0,
                0.0,
                0.0,
                2.220446049250313e-16,
                -1.0,
                0.0,
                0.0,
                1.0,
                2.220446049250313e-16,
                0.0,
                0.0,
                0.0,
                0.0,
                1.0
            ],
            "name": "Sketchfab_model"
        },
        {
            "children": [
                2
            ],
            "matrix": [
                1.0,
                0.0,
                0.0,
                0.0,
                0.0,
                0.0,
                1.0,
                0.0,
                0.0,
                -1.0,
                0.0,
                0.0,
                0.0,
                0.0,
                0.0,
                1.0
            ],
            "name": "AmongUs_Charecter.fbx"
        },
        {
            "children": [
                3
            ],
            "name": "RootNode"
        },
        {
            "children": [
                4,
                5
            ],
            "matrix": [
                1.0,
                0.0,
                0.0,
                0.0,
                0.0,
                1.0,
                0.0,
                0.0,
                0.0,
                0.0,
                1.0,
                0.0,
                -9.235661855200306e-05,
                0.8864556550979614,
                -0.006307717878371477,
                1.0
            ],
            "name": "Character"
        },
        {
            "mesh": 0,
            "name": "Character_Body_Mat_0"
        },
        {
            "mesh": 1,
            "name": "Character_Material_0"
        }
    ],
    "scene": 0,
    "scenes": [
        {
            "name": "Sketchfab_Scene",
            "nodes": [
                0
            ]
        }
    ],
    "extensionsUsed": [
        "KHR_xmp_json_ld"
    ]
}